<svg xmlns="http://www.w3.org/2000/svg" width="1617.43" height="1783.431" viewBox="0 0 1617.43 1783.431">
  <g id="blob-shape_1_" data-name="blob-shape (1)" transform="matrix(0.927, 0.375, -0.375, 0.927, 662.74, 318.179)">
    <path id="Path_146" data-name="Path 146" d="M849.008-65.166c78.573,115.26,84.687,272.1,76.432,397.755C917.492,458.244,895.173,553.02,880.8,666.752s-21.1,246.418-88.356,363.819c-67.261,117.095-195.667,218.9-277.3,155.005-81.936-63.9-117.095-293.5-157.451-419.462-40.051-125.961-85.3-148.585-211.871-219.82-126.878-71.235-335.386-191.081-368.71-305.73C-256.206,126.221-114.959,17.075,29.651-76.478,173.956-170.337,321.318-248.6,470.514-251.05,619.711-253.8,770.435-180.12,849.008-65.166Z" transform="translate(0 0)" fill="#0300df"/>
  </g>
</svg>
