<?xml version="1.0" standalone="no"?>
<svg viewBox="0 0 200 200" xmlns="http://www.w3.org/2000/svg">
  <path fill="#FF0066" d="M37,-69.5C46.1,-58.9,50.3,-45.2,56.1,-33.1C61.9,-21,69.3,-10.5,70.7,0.8C72.2,12.2,67.7,24.3,61.8,36.3C55.9,48.2,48.7,59.9,38.1,67.1C27.6,74.3,13.8,77,2.7,72.3C-8.4,67.6,-16.8,55.6,-30.2,50.1C-43.6,44.5,-62.1,45.5,-74.4,38.3C-86.7,31,-92.9,15.5,-90.2,1.5C-87.6,-12.4,-76.1,-24.9,-66.2,-36.3C-56.3,-47.8,-48,-58.4,-37.3,-68C-26.5,-77.7,-13.3,-86.5,0.4,-87.2C14,-87.8,27.9,-80.2,37,-69.5Z" transform="translate(100 100)" />
</svg>
