<?xml version="1.0" standalone="no"?>
<svg viewBox="0 0 200 200" xmlns="http://www.w3.org/2000/svg">
  <path fill="#FF0066" d="M36.7,-67.9C45.3,-58.5,48.6,-44.2,54.6,-32.1C60.7,-20,69.5,-10,70,0.3C70.4,10.5,62.6,21.1,57.2,34.3C51.8,47.6,48.8,63.5,39.7,72.1C30.6,80.6,15.3,81.7,0.4,81.1C-14.6,80.4,-29.1,78.1,-39.9,70.5C-50.6,62.9,-57.6,50.1,-62.5,37.5C-67.4,24.9,-70.2,12.4,-72.7,-1.4C-75.2,-15.3,-77.3,-30.5,-72.6,-43.6C-67.9,-56.6,-56.5,-67.3,-43.3,-74.1C-30.1,-80.8,-15,-83.6,-0.5,-82.7C14,-81.8,28,-77.3,36.7,-67.9Z" transform="translate(100 100)" />
</svg>
